<svg width="754" height="346" viewBox="0 0 754 346" fill="none" xmlns="http://www.w3.org/2000/svg">
<circle cx="78.3133" cy="189.807" r="17.8201" transform="rotate(-28.644 78.3133 189.807)" fill="#8BC8FF"/>
<path d="M28.9415 182.324C37.2049 173.197 60.3144 185.441 60.3144 185.441L76.8427 207.581C76.8427 207.581 69.7058 235.409 60.6516 229.699C53.6308 225.271 58.1158 208.661 58.1698 208.462C57.9964 208.888 18.6782 193.66 28.9415 182.324Z" fill="url(#paint0_linear_19_89)"/>
<path d="M60.3144 185.441C60.3144 185.441 37.2049 173.197 28.9415 182.324C18.6644 193.676 58.1022 208.929 58.1702 208.461M60.3144 185.441C59.628 192.919 58.2383 207.992 58.1702 208.461M60.3144 185.441L76.8427 207.581C76.8427 207.581 69.7058 235.409 60.6516 229.699C53.5886 225.244 58.1702 208.461 58.1702 208.461" stroke="url(#paint1_linear_19_89)" stroke-width="15"/>
<path d="M83.1583 140.781C72.1605 146.316 79.8991 159.718 77.8108 171.852L94.7514 193.678C94.7514 193.678 123.475 194.207 120.381 183.959C117.982 176.013 100.778 175.914 100.572 175.913C101.029 175.86 96.8177 133.906 83.1583 140.781Z" fill="url(#paint2_linear_19_89)"/>
<path d="M77.8108 171.852C79.8991 159.718 72.1605 146.316 83.1583 140.781C96.8361 133.897 101.04 175.972 100.57 175.913M77.8108 171.852C85.2015 173.181 100.1 175.854 100.57 175.913M77.8108 171.852L94.7514 193.678C94.7514 193.678 123.475 194.207 120.381 183.959C117.968 175.965 100.57 175.913 100.57 175.913" stroke="url(#paint3_linear_19_89)" stroke-width="15"/>
<circle cx="194.614" cy="227.39" r="17.8201" transform="rotate(-28.644 194.614 227.39)" fill="#8BC8FF"/>
<path d="M145.243 219.907C153.506 210.78 176.615 223.024 176.615 223.024L193.144 245.164C193.144 245.164 186.007 272.992 176.953 267.282C169.932 262.854 174.417 246.244 174.471 246.045C174.297 246.471 134.979 231.243 145.243 219.907Z" fill="url(#paint4_linear_19_89)"/>
<path d="M176.615 223.024C176.615 223.024 153.506 210.78 145.243 219.907C134.965 231.259 174.403 246.512 174.471 246.044M176.615 223.024C175.929 230.502 174.539 245.575 174.471 246.044M176.615 223.024L193.144 245.164C193.144 245.164 186.007 272.992 176.953 267.282C169.89 262.827 174.471 246.044 174.471 246.044" stroke="url(#paint5_linear_19_89)" stroke-width="15"/>
<path d="M199.459 178.364C188.462 183.899 196.2 197.301 194.112 209.435L211.052 231.261C211.052 231.261 239.776 231.79 236.682 221.542C234.283 213.596 217.079 213.497 216.873 213.496C217.33 213.443 213.119 171.489 199.459 178.364Z" fill="url(#paint6_linear_19_89)"/>
<path d="M194.112 209.435C196.2 197.301 188.462 183.899 199.459 178.364C213.137 171.48 217.341 213.555 216.871 213.496M194.112 209.435C201.503 210.764 216.401 213.437 216.871 213.496M194.112 209.435L211.052 231.261C211.052 231.261 239.776 231.79 236.682 221.542C234.269 213.548 216.871 213.496 216.871 213.496" stroke="url(#paint7_linear_19_89)" stroke-width="15"/>
<circle cx="318.614" cy="120.39" r="17.8201" transform="rotate(-28.644 318.614 120.39)" fill="#8BC8FF"/>
<path d="M269.243 112.907C277.506 103.78 300.615 116.024 300.615 116.024L317.144 138.164C317.144 138.164 310.007 165.992 300.953 160.282C293.932 155.854 298.417 139.244 298.471 139.045C298.297 139.471 258.979 124.243 269.243 112.907Z" fill="url(#paint8_linear_19_89)"/>
<path d="M300.615 116.024C300.615 116.024 277.506 103.78 269.243 112.907C258.965 124.259 298.403 139.512 298.471 139.044M300.615 116.024C299.929 123.502 298.539 138.575 298.471 139.044M300.615 116.024L317.144 138.164C317.144 138.164 310.007 165.992 300.953 160.282C293.89 155.827 298.471 139.044 298.471 139.044" stroke="url(#paint9_linear_19_89)" stroke-width="15"/>
<path d="M323.459 71.3641C312.462 76.8994 320.2 90.3009 318.112 102.435L335.052 124.261C335.052 124.261 363.776 124.79 360.682 114.542C358.283 106.596 341.079 106.497 340.873 106.496C341.33 106.443 337.119 64.4893 323.459 71.3641Z" fill="url(#paint10_linear_19_89)"/>
<path d="M318.112 102.435C320.2 90.3009 312.462 76.8994 323.459 71.3641C337.137 64.48 341.341 106.555 340.871 106.496M318.112 102.435C325.503 103.764 340.401 106.437 340.871 106.496M318.112 102.435L335.052 124.261C335.052 124.261 363.776 124.79 360.682 114.542C358.269 106.548 340.871 106.496 340.871 106.496" stroke="url(#paint11_linear_19_89)" stroke-width="15"/>
<circle cx="703.614" cy="178.39" r="17.8201" transform="rotate(-28.644 703.614 178.39)" fill="#8BC8FF"/>
<path d="M654.243 170.907C662.506 161.78 685.615 174.024 685.615 174.024L702.144 196.164C702.144 196.164 695.007 223.992 685.953 218.282C678.932 213.854 683.417 197.244 683.471 197.045C683.297 197.471 643.979 182.243 654.243 170.907Z" fill="url(#paint12_linear_19_89)"/>
<path d="M685.615 174.024C685.615 174.024 662.506 161.78 654.243 170.907C643.965 182.259 683.403 197.512 683.471 197.044M685.615 174.024C684.929 181.502 683.539 196.575 683.471 197.044M685.615 174.024L702.144 196.164C702.144 196.164 695.007 223.992 685.953 218.282C678.89 213.827 683.471 197.044 683.471 197.044" stroke="url(#paint13_linear_19_89)" stroke-width="15"/>
<path d="M708.459 129.364C697.462 134.899 705.2 148.301 703.112 160.435L720.052 182.261C720.052 182.261 748.776 182.79 745.682 172.542C743.283 164.596 726.079 164.497 725.873 164.496C726.33 164.443 722.119 122.489 708.459 129.364Z" fill="url(#paint14_linear_19_89)"/>
<path d="M703.112 160.435C705.2 148.301 697.462 134.899 708.459 129.364C722.137 122.48 726.341 164.555 725.871 164.496M703.112 160.435C710.503 161.764 725.401 164.437 725.871 164.496M703.112 160.435L720.052 182.261C720.052 182.261 748.776 182.79 745.682 172.542C743.269 164.548 725.871 164.496 725.871 164.496" stroke="url(#paint15_linear_19_89)" stroke-width="15"/>
<circle cx="443.614" cy="197.39" r="17.8201" transform="rotate(-28.644 443.614 197.39)" fill="#8BC8FF"/>
<path d="M394.243 189.907C402.506 180.78 425.615 193.024 425.615 193.024L442.144 215.164C442.144 215.164 435.007 242.992 425.953 237.282C418.932 232.854 423.417 216.244 423.471 216.045C423.297 216.471 383.979 201.243 394.243 189.907Z" fill="url(#paint16_linear_19_89)"/>
<path d="M425.615 193.024C425.615 193.024 402.506 180.78 394.243 189.907C383.965 201.259 423.403 216.512 423.471 216.044M425.615 193.024C424.929 200.502 423.539 215.575 423.471 216.044M425.615 193.024L442.144 215.164C442.144 215.164 435.007 242.992 425.953 237.282C418.89 232.827 423.471 216.044 423.471 216.044" stroke="url(#paint17_linear_19_89)" stroke-width="15"/>
<path d="M448.459 148.364C437.462 153.899 445.2 167.301 443.112 179.435L460.052 201.261C460.052 201.261 488.776 201.79 485.682 191.542C483.283 183.596 466.079 183.497 465.873 183.496C466.33 183.443 462.119 141.489 448.459 148.364Z" fill="url(#paint18_linear_19_89)"/>
<path d="M443.112 179.435C445.2 167.301 437.462 153.899 448.459 148.364C462.137 141.48 466.341 183.555 465.871 183.496M443.112 179.435C450.503 180.764 465.401 183.437 465.871 183.496M443.112 179.435L460.052 201.261C460.052 201.261 488.776 201.79 485.682 191.542C483.269 183.548 465.871 183.496 465.871 183.496" stroke="url(#paint19_linear_19_89)" stroke-width="15"/>
<circle cx="561.614" cy="91.3902" r="17.8201" transform="rotate(-28.644 561.614 91.3902)" fill="#8BC8FF"/>
<path d="M512.243 83.9071C520.506 74.7798 543.615 87.0243 543.615 87.0243L560.144 109.164C560.144 109.164 553.007 136.992 543.953 131.282C536.932 126.854 541.417 110.244 541.471 110.045C541.297 110.471 501.979 95.2433 512.243 83.9071Z" fill="url(#paint20_linear_19_89)"/>
<path d="M543.615 87.0243C543.615 87.0243 520.506 74.7798 512.243 83.9071C501.965 95.2586 541.403 110.512 541.471 110.044M543.615 87.0243C542.929 94.5021 541.539 109.575 541.471 110.044M543.615 87.0243L560.144 109.164C560.144 109.164 553.007 136.992 543.953 131.282C536.89 126.827 541.471 110.044 541.471 110.044" stroke="url(#paint21_linear_19_89)" stroke-width="15"/>
<path d="M566.459 42.3641C555.462 47.8994 563.2 61.3009 561.112 73.4348L578.052 95.2607C578.052 95.2607 606.776 95.7898 603.682 85.5421C601.283 77.5959 584.079 77.4972 583.873 77.4963C584.33 77.4426 580.119 35.4893 566.459 42.3641Z" fill="url(#paint22_linear_19_89)"/>
<path d="M561.112 73.4348C563.2 61.3009 555.462 47.8994 566.459 42.3641C580.137 35.48 584.341 77.5555 583.871 77.4963M561.112 73.4348C568.503 74.7639 583.401 77.437 583.871 77.4963M561.112 73.4348L578.052 95.2607C578.052 95.2607 606.776 95.7898 603.682 85.5421C601.269 77.5481 583.871 77.4963 583.871 77.4963" stroke="url(#paint23_linear_19_89)" stroke-width="15"/>
<circle cx="191.611" cy="126.8" r="17.5" transform="rotate(-48.8515 191.611 126.8)" fill="#FF71C9" stroke="url(#paint24_linear_19_89)" stroke-width="17.4702"/>
<path d="M146.986 97.7868C160.379 92.5313 178.197 117.36 178.197 117.36L183.983 149.123C183.983 149.123 162.046 174.534 155.539 163.851C150.494 155.567 163.824 140.517 163.983 140.337C163.58 140.692 130.351 104.314 146.986 97.7868Z" fill="url(#paint25_linear_19_89)"/>
<path d="M178.197 117.36C178.197 117.36 160.379 92.5313 146.986 97.7868C130.329 104.323 163.67 140.79 163.985 140.335M178.197 117.36C173.591 124.829 164.3 139.88 163.985 140.335M178.197 117.36L183.983 149.123C183.983 149.123 162.046 174.534 155.539 163.851C150.464 155.517 163.985 140.335 163.985 140.335" stroke="url(#paint26_linear_19_89)" stroke-width="15"/>
<path d="M225.322 82.5002C210.935 82.5749 203.572 112.235 203.572 112.235L209.953 143.884C209.953 143.884 239.737 159.371 241.827 147.039C243.448 137.476 225.495 128.428 225.28 128.32C225.786 128.501 243.191 82.4074 225.322 82.5002Z" fill="url(#paint27_linear_19_89)"/>
<path d="M203.572 112.235C203.572 112.235 210.935 82.5749 225.322 82.5002C243.215 82.4073 225.739 128.625 225.278 128.319M203.572 112.235C210.615 117.469 224.817 128.012 225.278 128.319M203.572 112.235L209.953 143.884C209.953 143.884 239.737 159.371 241.827 147.039C243.458 137.418 225.278 128.319 225.278 128.319" stroke="url(#paint28_linear_19_89)" stroke-width="15"/>
<circle cx="67.6106" cy="281.8" r="17.5" transform="rotate(-48.8515 67.6106 281.8)" fill="#FF71C9" stroke="url(#paint29_linear_19_89)" stroke-width="17.4702"/>
<path d="M22.9857 252.787C36.3787 247.531 54.1967 272.36 54.1967 272.36L59.9827 304.123C59.9827 304.123 38.0458 329.534 31.5395 318.851C26.4944 310.567 39.8236 295.517 39.9833 295.337C39.5804 295.692 6.35129 259.314 22.9857 252.787Z" fill="url(#paint30_linear_19_89)"/>
<path d="M54.1967 272.36C54.1967 272.36 36.3787 247.531 22.9857 252.787C6.32893 259.323 39.6698 295.79 39.9847 295.335M54.1967 272.36C49.5906 279.829 40.2996 294.88 39.9847 295.335M54.1967 272.36L59.9827 304.123C59.9827 304.123 38.0458 329.534 31.5395 318.851C26.464 310.517 39.9847 295.335 39.9847 295.335" stroke="url(#paint31_linear_19_89)" stroke-width="15"/>
<path d="M101.322 237.5C86.9351 237.575 79.5719 267.235 79.5719 267.235L85.9527 298.884C85.9527 298.884 115.737 314.371 117.827 302.039C119.448 292.476 101.495 283.428 101.28 283.32C101.786 283.501 119.191 237.407 101.322 237.5Z" fill="url(#paint32_linear_19_89)"/>
<path d="M79.5719 267.235C79.5719 267.235 86.9351 237.575 101.322 237.5C119.215 237.407 101.739 283.625 101.278 283.319M79.5719 267.235C86.6152 272.469 100.817 283.012 101.278 283.319M79.5719 267.235L85.9527 298.884C85.9527 298.884 115.737 314.371 117.827 302.039C119.458 292.418 101.278 283.319 101.278 283.319" stroke="url(#paint33_linear_19_89)" stroke-width="15"/>
<circle cx="674.611" cy="67.8003" r="17.5" transform="rotate(-48.8515 674.611 67.8003)" fill="#FF71C9" stroke="url(#paint34_linear_19_89)" stroke-width="17.4702"/>
<path d="M629.986 38.7868C643.379 33.5313 661.197 58.3602 661.197 58.3602L666.983 90.1228C666.983 90.1228 645.046 115.534 638.539 104.851C633.494 96.5668 646.824 81.5165 646.983 81.3368C646.58 81.6924 613.351 45.3141 629.986 38.7868Z" fill="url(#paint35_linear_19_89)"/>
<path d="M661.197 58.3602C661.197 58.3602 643.379 33.5313 629.986 38.7868C613.329 45.3229 646.67 81.7903 646.985 81.3352M661.197 58.3602C656.591 65.8289 647.3 80.88 646.985 81.3352M661.197 58.3602L666.983 90.1228C666.983 90.1228 645.046 115.534 638.539 104.851C633.464 96.517 646.985 81.3352 646.985 81.3352" stroke="url(#paint36_linear_19_89)" stroke-width="15"/>
<path d="M708.322 23.5002C693.935 23.5749 686.572 53.2353 686.572 53.2353L692.953 84.8838C692.953 84.8838 722.737 100.371 724.827 88.0386C726.448 78.4757 708.495 69.4275 708.28 69.3196C708.786 69.5009 726.191 23.4074 708.322 23.5002Z" fill="url(#paint37_linear_19_89)"/>
<path d="M686.572 53.2353C686.572 53.2353 693.935 23.5749 708.322 23.5002C726.215 23.4073 708.739 69.6249 708.278 69.3187M686.572 53.2353C693.615 58.4688 707.817 69.0124 708.278 69.3187M686.572 53.2353L692.953 84.8838C692.953 84.8838 722.737 100.371 724.827 88.0386C726.458 78.4181 708.278 69.3187 708.278 69.3187" stroke="url(#paint38_linear_19_89)" stroke-width="15"/>
<circle cx="434.611" cy="97.8003" r="17.5" transform="rotate(-48.8515 434.611 97.8003)" fill="#FF71C9" stroke="url(#paint39_linear_19_89)" stroke-width="17.4702"/>
<path d="M389.986 68.7868C403.379 63.5313 421.197 88.3602 421.197 88.3602L426.983 120.123C426.983 120.123 405.046 145.534 398.539 134.851C393.494 126.567 406.824 111.517 406.983 111.337C406.58 111.692 373.351 75.3141 389.986 68.7868Z" fill="url(#paint40_linear_19_89)"/>
<path d="M421.197 88.3602C421.197 88.3602 403.379 63.5313 389.986 68.7868C373.329 75.3229 406.67 111.79 406.985 111.335M421.197 88.3602C416.591 95.8289 407.3 110.88 406.985 111.335M421.197 88.3602L426.983 120.123C426.983 120.123 405.046 145.534 398.539 134.851C393.464 126.517 406.985 111.335 406.985 111.335" stroke="url(#paint41_linear_19_89)" stroke-width="15"/>
<path d="M468.322 53.5002C453.935 53.5749 446.572 83.2353 446.572 83.2353L452.953 114.884C452.953 114.884 482.737 130.371 484.827 118.039C486.448 108.476 468.495 99.4275 468.28 99.3196C468.786 99.5009 486.191 53.4074 468.322 53.5002Z" fill="url(#paint42_linear_19_89)"/>
<path d="M446.572 83.2353C446.572 83.2353 453.935 53.5749 468.322 53.5002C486.215 53.4073 468.739 99.6249 468.278 99.3187M446.572 83.2353C453.615 88.4688 467.817 99.0124 468.278 99.3187M446.572 83.2353L452.953 114.884C452.953 114.884 482.737 130.371 484.827 118.039C486.458 108.418 468.278 99.3187 468.278 99.3187" stroke="url(#paint43_linear_19_89)" stroke-width="15"/>
<circle cx="568.611" cy="193.8" r="17.5" transform="rotate(-48.8515 568.611 193.8)" fill="#FF71C9" stroke="url(#paint44_linear_19_89)" stroke-width="17.4702"/>
<path d="M523.986 164.787C537.379 159.531 555.197 184.36 555.197 184.36L560.983 216.123C560.983 216.123 539.046 241.534 532.539 230.851C527.494 222.567 540.824 207.517 540.983 207.337C540.58 207.692 507.351 171.314 523.986 164.787Z" fill="url(#paint45_linear_19_89)"/>
<path d="M555.197 184.36C555.197 184.36 537.379 159.531 523.986 164.787C507.329 171.323 540.67 207.79 540.985 207.335M555.197 184.36C550.591 191.829 541.3 206.88 540.985 207.335M555.197 184.36L560.983 216.123C560.983 216.123 539.046 241.534 532.539 230.851C527.464 222.517 540.985 207.335 540.985 207.335" stroke="url(#paint46_linear_19_89)" stroke-width="15"/>
<path d="M602.322 149.5C587.935 149.575 580.572 179.235 580.572 179.235L586.953 210.884C586.953 210.884 616.737 226.371 618.827 214.039C620.448 204.476 602.495 195.428 602.28 195.32C602.786 195.501 620.191 149.407 602.322 149.5Z" fill="url(#paint47_linear_19_89)"/>
<path d="M580.572 179.235C580.572 179.235 587.935 149.575 602.322 149.5C620.215 149.407 602.739 195.625 602.278 195.319M580.572 179.235C587.615 184.469 601.817 195.012 602.278 195.319M580.572 179.235L586.953 210.884C586.953 210.884 616.737 226.371 618.827 214.039C620.458 204.418 602.278 195.319 602.278 195.319" stroke="url(#paint48_linear_19_89)" stroke-width="15"/>
<circle cx="313.611" cy="221.8" r="17.5" transform="rotate(-48.8515 313.611 221.8)" fill="#FF71C9" stroke="url(#paint49_linear_19_89)" stroke-width="17.4702"/>
<path d="M268.986 192.787C282.379 187.531 300.197 212.36 300.197 212.36L305.983 244.123C305.983 244.123 284.046 269.534 277.539 258.851C272.494 250.567 285.824 235.517 285.983 235.337C285.58 235.692 252.351 199.314 268.986 192.787Z" fill="url(#paint50_linear_19_89)"/>
<path d="M300.197 212.36C300.197 212.36 282.379 187.531 268.986 192.787C252.329 199.323 285.67 235.79 285.985 235.335M300.197 212.36C295.591 219.829 286.3 234.88 285.985 235.335M300.197 212.36L305.983 244.123C305.983 244.123 284.046 269.534 277.539 258.851C272.464 250.517 285.985 235.335 285.985 235.335" stroke="url(#paint51_linear_19_89)" stroke-width="15"/>
<path d="M347.322 177.5C332.935 177.575 325.572 207.235 325.572 207.235L331.953 238.884C331.953 238.884 361.737 254.371 363.827 242.039C365.448 232.476 347.495 223.428 347.28 223.32C347.786 223.501 365.191 177.407 347.322 177.5Z" fill="url(#paint52_linear_19_89)"/>
<path d="M325.572 207.235C325.572 207.235 332.935 177.575 347.322 177.5C365.215 177.407 347.739 223.625 347.278 223.319M325.572 207.235C332.615 212.469 346.817 223.012 347.278 223.319M325.572 207.235L331.953 238.884C331.953 238.884 361.737 254.371 363.827 242.039C365.458 232.418 347.278 223.319 347.278 223.319" stroke="url(#paint53_linear_19_89)" stroke-width="15"/>
<defs>
<linearGradient id="paint0_linear_19_89" x1="57.1761" y1="180.822" x2="35.8808" y2="198.238" gradientUnits="userSpaceOnUse">
<stop stop-color="#8AC7FE"/>
<stop offset="0.244792" stop-color="#8AC7FE"/>
</linearGradient>
<linearGradient id="paint1_linear_19_89" x1="57.1761" y1="180.822" x2="35.8808" y2="198.238" gradientUnits="userSpaceOnUse">
<stop stop-color="#8AC7FE"/>
<stop offset="1" stop-color="#8AC7FE"/>
</linearGradient>
<linearGradient id="paint2_linear_19_89" x1="74.1935" y1="167.597" x2="96.651" y2="151.707" gradientUnits="userSpaceOnUse">
<stop stop-color="#8AC7FE"/>
<stop offset="0.244792" stop-color="#8AC7FE"/>
</linearGradient>
<linearGradient id="paint3_linear_19_89" x1="74.1935" y1="167.597" x2="96.651" y2="151.707" gradientUnits="userSpaceOnUse">
<stop stop-color="#8AC7FE"/>
<stop offset="1" stop-color="#8AC7FE"/>
</linearGradient>
<linearGradient id="paint4_linear_19_89" x1="173.477" y1="218.405" x2="152.182" y2="235.821" gradientUnits="userSpaceOnUse">
<stop stop-color="#8AC7FE"/>
<stop offset="0.244792" stop-color="#8AC7FE"/>
</linearGradient>
<linearGradient id="paint5_linear_19_89" x1="173.477" y1="218.405" x2="152.182" y2="235.821" gradientUnits="userSpaceOnUse">
<stop stop-color="#8AC7FE"/>
<stop offset="1" stop-color="#8AC7FE"/>
</linearGradient>
<linearGradient id="paint6_linear_19_89" x1="190.495" y1="205.18" x2="212.952" y2="189.29" gradientUnits="userSpaceOnUse">
<stop stop-color="#8AC7FE"/>
<stop offset="0.244792" stop-color="#8AC7FE"/>
</linearGradient>
<linearGradient id="paint7_linear_19_89" x1="190.495" y1="205.18" x2="212.952" y2="189.29" gradientUnits="userSpaceOnUse">
<stop stop-color="#8AC7FE"/>
<stop offset="1" stop-color="#8AC7FE"/>
</linearGradient>
<linearGradient id="paint8_linear_19_89" x1="297.477" y1="111.405" x2="276.182" y2="128.821" gradientUnits="userSpaceOnUse">
<stop stop-color="#8AC7FE"/>
<stop offset="0.244792" stop-color="#8AC7FE"/>
</linearGradient>
<linearGradient id="paint9_linear_19_89" x1="297.477" y1="111.405" x2="276.182" y2="128.821" gradientUnits="userSpaceOnUse">
<stop stop-color="#8AC7FE"/>
<stop offset="1" stop-color="#8AC7FE"/>
</linearGradient>
<linearGradient id="paint10_linear_19_89" x1="314.495" y1="98.1798" x2="336.952" y2="82.2898" gradientUnits="userSpaceOnUse">
<stop stop-color="#8AC7FE"/>
<stop offset="0.244792" stop-color="#8AC7FE"/>
</linearGradient>
<linearGradient id="paint11_linear_19_89" x1="314.495" y1="98.1798" x2="336.952" y2="82.2898" gradientUnits="userSpaceOnUse">
<stop stop-color="#8AC7FE"/>
<stop offset="1" stop-color="#8AC7FE"/>
</linearGradient>
<linearGradient id="paint12_linear_19_89" x1="682.477" y1="169.405" x2="661.182" y2="186.821" gradientUnits="userSpaceOnUse">
<stop stop-color="#8AC7FE"/>
<stop offset="0.244792" stop-color="#8AC7FE"/>
</linearGradient>
<linearGradient id="paint13_linear_19_89" x1="682.477" y1="169.405" x2="661.182" y2="186.821" gradientUnits="userSpaceOnUse">
<stop stop-color="#8AC7FE"/>
<stop offset="1" stop-color="#8AC7FE"/>
</linearGradient>
<linearGradient id="paint14_linear_19_89" x1="699.495" y1="156.18" x2="721.952" y2="140.29" gradientUnits="userSpaceOnUse">
<stop stop-color="#8AC7FE"/>
<stop offset="0.244792" stop-color="#8AC7FE"/>
</linearGradient>
<linearGradient id="paint15_linear_19_89" x1="699.495" y1="156.18" x2="721.952" y2="140.29" gradientUnits="userSpaceOnUse">
<stop stop-color="#8AC7FE"/>
<stop offset="1" stop-color="#8AC7FE"/>
</linearGradient>
<linearGradient id="paint16_linear_19_89" x1="422.477" y1="188.405" x2="401.182" y2="205.821" gradientUnits="userSpaceOnUse">
<stop stop-color="#8AC7FE"/>
<stop offset="0.244792" stop-color="#8AC7FE"/>
</linearGradient>
<linearGradient id="paint17_linear_19_89" x1="422.477" y1="188.405" x2="401.182" y2="205.821" gradientUnits="userSpaceOnUse">
<stop stop-color="#8AC7FE"/>
<stop offset="1" stop-color="#8AC7FE"/>
</linearGradient>
<linearGradient id="paint18_linear_19_89" x1="439.495" y1="175.18" x2="461.952" y2="159.29" gradientUnits="userSpaceOnUse">
<stop stop-color="#8AC7FE"/>
<stop offset="0.244792" stop-color="#8AC7FE"/>
</linearGradient>
<linearGradient id="paint19_linear_19_89" x1="439.495" y1="175.18" x2="461.952" y2="159.29" gradientUnits="userSpaceOnUse">
<stop stop-color="#8AC7FE"/>
<stop offset="1" stop-color="#8AC7FE"/>
</linearGradient>
<linearGradient id="paint20_linear_19_89" x1="540.477" y1="82.4048" x2="519.182" y2="99.8215" gradientUnits="userSpaceOnUse">
<stop stop-color="#8AC7FE"/>
<stop offset="0.244792" stop-color="#8AC7FE"/>
</linearGradient>
<linearGradient id="paint21_linear_19_89" x1="540.477" y1="82.4048" x2="519.182" y2="99.8215" gradientUnits="userSpaceOnUse">
<stop stop-color="#8AC7FE"/>
<stop offset="1" stop-color="#8AC7FE"/>
</linearGradient>
<linearGradient id="paint22_linear_19_89" x1="557.495" y1="69.1798" x2="579.952" y2="53.2898" gradientUnits="userSpaceOnUse">
<stop stop-color="#8AC7FE"/>
<stop offset="0.244792" stop-color="#8AC7FE"/>
</linearGradient>
<linearGradient id="paint23_linear_19_89" x1="557.495" y1="69.1798" x2="579.952" y2="53.2898" gradientUnits="userSpaceOnUse">
<stop stop-color="#8AC7FE"/>
<stop offset="1" stop-color="#8AC7FE"/>
</linearGradient>
<linearGradient id="paint24_linear_19_89" x1="217.275" y1="112.584" x2="163.66" y2="117.271" gradientUnits="userSpaceOnUse">
<stop offset="0.0001" stop-color="#FF70C8"/>
<stop offset="0.9999" stop-color="#FF70CA"/>
</linearGradient>
<linearGradient id="paint25_linear_19_89" x1="176.146" y1="107.964" x2="145.405" y2="114.852" gradientUnits="userSpaceOnUse">
<stop stop-color="#FF70CA"/>
<stop offset="0.9998" stop-color="#FF70C8"/>
<stop offset="0.9999" stop-color="#FF73C9" stop-opacity="0.5059"/>
<stop offset="1" stop-color="#FF8ED5" stop-opacity="0"/>
</linearGradient>
<linearGradient id="paint26_linear_19_89" x1="176.236" y1="108.615" x2="135.15" y2="115.333" gradientUnits="userSpaceOnUse">
<stop offset="0.0001" stop-color="#FF70C8"/>
<stop offset="1" stop-color="#FF70CA"/>
</linearGradient>
<linearGradient id="paint27_linear_19_89" x1="201.999" y1="102.747" x2="233.107" y2="97.768" gradientUnits="userSpaceOnUse">
<stop offset="0.0001" stop-color="#FF70C8"/>
<stop offset="0.9999" stop-color="#FF70CA"/>
</linearGradient>
<linearGradient id="paint28_linear_19_89" x1="202.157" y1="103.386" x2="235.927" y2="98.0191" gradientUnits="userSpaceOnUse">
<stop offset="0.0001" stop-color="#FF70C8"/>
<stop offset="1" stop-color="#FF70CA"/>
</linearGradient>
<linearGradient id="paint29_linear_19_89" x1="93.2748" y1="267.584" x2="39.6601" y2="272.271" gradientUnits="userSpaceOnUse">
<stop offset="0.0001" stop-color="#FF70C8"/>
<stop offset="0.9999" stop-color="#FF70CA"/>
</linearGradient>
<linearGradient id="paint30_linear_19_89" x1="52.1464" y1="262.964" x2="21.4048" y2="269.852" gradientUnits="userSpaceOnUse">
<stop stop-color="#FF70CA"/>
<stop offset="0.9998" stop-color="#FF70C8"/>
<stop offset="0.9999" stop-color="#FF73C9" stop-opacity="0.5059"/>
<stop offset="1" stop-color="#FF8ED5" stop-opacity="0"/>
</linearGradient>
<linearGradient id="paint31_linear_19_89" x1="52.2361" y1="263.615" x2="11.1502" y2="270.333" gradientUnits="userSpaceOnUse">
<stop offset="0.0001" stop-color="#FF70C8"/>
<stop offset="1" stop-color="#FF70CA"/>
</linearGradient>
<linearGradient id="paint32_linear_19_89" x1="77.999" y1="257.747" x2="109.107" y2="252.768" gradientUnits="userSpaceOnUse">
<stop offset="0.0001" stop-color="#FF70C8"/>
<stop offset="0.9999" stop-color="#FF70CA"/>
</linearGradient>
<linearGradient id="paint33_linear_19_89" x1="78.1567" y1="258.386" x2="111.927" y2="253.019" gradientUnits="userSpaceOnUse">
<stop offset="0.0001" stop-color="#FF70C8"/>
<stop offset="1" stop-color="#FF70CA"/>
</linearGradient>
<linearGradient id="paint34_linear_19_89" x1="700.275" y1="53.5837" x2="646.66" y2="58.2714" gradientUnits="userSpaceOnUse">
<stop offset="0.0001" stop-color="#FF70C8"/>
<stop offset="0.9999" stop-color="#FF70CA"/>
</linearGradient>
<linearGradient id="paint35_linear_19_89" x1="659.146" y1="48.9639" x2="628.405" y2="55.8515" gradientUnits="userSpaceOnUse">
<stop stop-color="#FF70CA"/>
<stop offset="0.9998" stop-color="#FF70C8"/>
<stop offset="0.9999" stop-color="#FF73C9" stop-opacity="0.5059"/>
<stop offset="1" stop-color="#FF8ED5" stop-opacity="0"/>
</linearGradient>
<linearGradient id="paint36_linear_19_89" x1="659.236" y1="49.6153" x2="618.15" y2="56.3335" gradientUnits="userSpaceOnUse">
<stop offset="0.0001" stop-color="#FF70C8"/>
<stop offset="1" stop-color="#FF70CA"/>
</linearGradient>
<linearGradient id="paint37_linear_19_89" x1="684.999" y1="43.7474" x2="716.107" y2="38.768" gradientUnits="userSpaceOnUse">
<stop offset="0.0001" stop-color="#FF70C8"/>
<stop offset="0.9999" stop-color="#FF70CA"/>
</linearGradient>
<linearGradient id="paint38_linear_19_89" x1="685.157" y1="44.3858" x2="718.927" y2="39.0191" gradientUnits="userSpaceOnUse">
<stop offset="0.0001" stop-color="#FF70C8"/>
<stop offset="1" stop-color="#FF70CA"/>
</linearGradient>
<linearGradient id="paint39_linear_19_89" x1="460.275" y1="83.5837" x2="406.66" y2="88.2714" gradientUnits="userSpaceOnUse">
<stop offset="0.0001" stop-color="#FF70C8"/>
<stop offset="0.9999" stop-color="#FF70CA"/>
</linearGradient>
<linearGradient id="paint40_linear_19_89" x1="419.146" y1="78.9639" x2="388.405" y2="85.8515" gradientUnits="userSpaceOnUse">
<stop stop-color="#FF70CA"/>
<stop offset="0.9998" stop-color="#FF70C8"/>
<stop offset="0.9999" stop-color="#FF73C9" stop-opacity="0.5059"/>
<stop offset="1" stop-color="#FF8ED5" stop-opacity="0"/>
</linearGradient>
<linearGradient id="paint41_linear_19_89" x1="419.236" y1="79.6153" x2="378.15" y2="86.3335" gradientUnits="userSpaceOnUse">
<stop offset="0.0001" stop-color="#FF70C8"/>
<stop offset="1" stop-color="#FF70CA"/>
</linearGradient>
<linearGradient id="paint42_linear_19_89" x1="444.999" y1="73.7474" x2="476.107" y2="68.768" gradientUnits="userSpaceOnUse">
<stop offset="0.0001" stop-color="#FF70C8"/>
<stop offset="0.9999" stop-color="#FF70CA"/>
</linearGradient>
<linearGradient id="paint43_linear_19_89" x1="445.157" y1="74.3858" x2="478.927" y2="69.0191" gradientUnits="userSpaceOnUse">
<stop offset="0.0001" stop-color="#FF70C8"/>
<stop offset="1" stop-color="#FF70CA"/>
</linearGradient>
<linearGradient id="paint44_linear_19_89" x1="594.275" y1="179.584" x2="540.66" y2="184.271" gradientUnits="userSpaceOnUse">
<stop offset="0.0001" stop-color="#FF70C8"/>
<stop offset="0.9999" stop-color="#FF70CA"/>
</linearGradient>
<linearGradient id="paint45_linear_19_89" x1="553.146" y1="174.964" x2="522.405" y2="181.852" gradientUnits="userSpaceOnUse">
<stop stop-color="#FF70CA"/>
<stop offset="0.9998" stop-color="#FF70C8"/>
<stop offset="0.9999" stop-color="#FF73C9" stop-opacity="0.5059"/>
<stop offset="1" stop-color="#FF8ED5" stop-opacity="0"/>
</linearGradient>
<linearGradient id="paint46_linear_19_89" x1="553.236" y1="175.615" x2="512.15" y2="182.333" gradientUnits="userSpaceOnUse">
<stop offset="0.0001" stop-color="#FF70C8"/>
<stop offset="1" stop-color="#FF70CA"/>
</linearGradient>
<linearGradient id="paint47_linear_19_89" x1="578.999" y1="169.747" x2="610.107" y2="164.768" gradientUnits="userSpaceOnUse">
<stop offset="0.0001" stop-color="#FF70C8"/>
<stop offset="0.9999" stop-color="#FF70CA"/>
</linearGradient>
<linearGradient id="paint48_linear_19_89" x1="579.157" y1="170.386" x2="612.927" y2="165.019" gradientUnits="userSpaceOnUse">
<stop offset="0.0001" stop-color="#FF70C8"/>
<stop offset="1" stop-color="#FF70CA"/>
</linearGradient>
<linearGradient id="paint49_linear_19_89" x1="339.275" y1="207.584" x2="285.66" y2="212.271" gradientUnits="userSpaceOnUse">
<stop offset="0.0001" stop-color="#FF70C8"/>
<stop offset="0.9999" stop-color="#FF70CA"/>
</linearGradient>
<linearGradient id="paint50_linear_19_89" x1="298.146" y1="202.964" x2="267.405" y2="209.852" gradientUnits="userSpaceOnUse">
<stop stop-color="#FF70CA"/>
<stop offset="0.9998" stop-color="#FF70C8"/>
<stop offset="0.9999" stop-color="#FF73C9" stop-opacity="0.5059"/>
<stop offset="1" stop-color="#FF8ED5" stop-opacity="0"/>
</linearGradient>
<linearGradient id="paint51_linear_19_89" x1="298.236" y1="203.615" x2="257.15" y2="210.333" gradientUnits="userSpaceOnUse">
<stop offset="0.0001" stop-color="#FF70C8"/>
<stop offset="1" stop-color="#FF70CA"/>
</linearGradient>
<linearGradient id="paint52_linear_19_89" x1="323.999" y1="197.747" x2="355.107" y2="192.768" gradientUnits="userSpaceOnUse">
<stop offset="0.0001" stop-color="#FF70C8"/>
<stop offset="0.9999" stop-color="#FF70CA"/>
</linearGradient>
<linearGradient id="paint53_linear_19_89" x1="324.157" y1="198.386" x2="357.927" y2="193.019" gradientUnits="userSpaceOnUse">
<stop offset="0.0001" stop-color="#FF70C8"/>
<stop offset="1" stop-color="#FF70CA"/>
</linearGradient>
</defs>
</svg>
