<svg width="1627" height="1518" viewBox="0 0 1627 1518" fill="none" xmlns="http://www.w3.org/2000/svg">
<path d="M530.77 738.981L541.494 725.207L547.369 729.782C549.989 731.821 550.466 733.91 548.802 736.049C547.582 737.616 545.759 737.996 543.333 737.191C545.085 739.101 545.255 740.961 543.846 742.772C541.781 745.424 539.313 745.633 536.443 743.398L530.77 738.981ZM537.012 742.448C539.234 744.178 541.145 744.016 542.744 741.961C544.159 740.144 543.476 738.153 540.696 735.988L539.925 735.388L540.458 734.704C543.893 736.915 546.314 737.118 547.719 735.314C548.968 733.708 548.604 732.136 546.627 730.596L541.83 726.861L532.456 738.901L537.012 742.448ZM559.617 761.441C560.14 756.278 560.347 753.185 560.237 752.161C560.131 751.13 559.7 750.32 558.942 749.73L559.49 749.027C560.774 750.027 562.732 749.916 565.363 748.696C568.001 747.48 569.924 747.342 571.131 748.282L572.162 749.084L571.487 749.951L570.726 749.359C569.711 748.569 568.094 748.712 565.874 749.789C563.658 750.859 561.988 751.157 560.861 750.683C561.278 751.141 561.525 751.916 561.603 753.008C561.686 754.094 561.487 757.265 561.004 762.521L559.617 761.441ZM563.088 742.02L552.365 755.794L551.353 755.007L562.077 741.233L563.088 742.02ZM542.713 748.28C547.691 746.524 550.716 745.553 551.788 745.367C552.866 745.175 553.678 745.224 554.225 745.516C553.489 744.54 553.368 742.848 553.862 740.438C554.362 738.021 554.104 736.418 553.09 735.628L552.329 735.036L553.004 734.169L554.034 734.971C555.242 735.911 555.576 737.806 555.038 740.657C554.506 743.512 554.882 745.44 556.167 746.44L555.619 747.143C554.862 746.553 553.97 746.333 552.945 746.484C551.925 746.628 548.977 747.587 544.1 749.36L542.713 748.28ZM584.76 758.893L571.298 766.389C569.226 767.54 567.307 767.428 565.541 766.053C564.719 765.413 564.136 764.598 563.793 763.609L564.468 762.742C564.799 763.721 565.372 764.528 566.187 765.163C567.561 766.233 568.903 766.345 570.213 765.497L572.894 749.654L574.001 750.517L571.514 764.979L583.681 758.053L584.76 758.893ZM585.312 770.385L585.251 759.276L586.455 760.213L586.502 770.089L596.087 767.712L597.291 768.65L586.516 771.322L586.568 782.423L585.364 781.486L585.317 771.611L575.732 773.987L574.528 773.049L585.312 770.385Z" fill="#EAD0FF"/>
<path d="M853.022 1244.71L848.265 1227.91L855.43 1225.89C858.624 1224.98 860.591 1225.83 861.329 1228.44C861.87 1230.35 861.098 1232.05 859.014 1233.52C861.59 1233.24 863.19 1234.21 863.816 1236.41C864.732 1239.65 863.439 1241.76 859.939 1242.75L853.022 1244.71ZM859.511 1241.73C862.22 1240.96 863.22 1239.33 862.51 1236.82C861.883 1234.61 859.874 1233.98 856.483 1234.94L855.544 1235.2L855.308 1234.37C859.123 1232.91 860.719 1231.08 860.096 1228.88C859.541 1226.92 858.058 1226.28 855.647 1226.97L849.798 1228.62L853.955 1243.3L859.511 1241.73ZM888.198 1234.75C884.346 1231.27 881.975 1229.27 881.084 1228.76C880.191 1228.23 879.283 1228.1 878.359 1228.36L878.116 1227.5C879.682 1227.06 880.752 1225.42 881.325 1222.57C881.906 1219.73 882.933 1218.1 884.405 1217.68L885.662 1217.32L885.961 1218.38L885.033 1218.64C883.796 1218.99 882.954 1220.38 882.508 1222.81C882.06 1225.23 881.311 1226.75 880.262 1227.38C880.879 1227.31 881.65 1227.57 882.576 1228.16C883.5 1228.73 885.938 1230.77 889.89 1234.27L888.198 1234.75ZM874.598 1220.46L879.354 1237.25L878.121 1237.6L873.364 1220.81L874.598 1220.46ZM867.586 1240.59C869.115 1235.53 870.123 1232.52 870.608 1231.55C871.091 1230.56 871.612 1229.94 872.17 1229.67C870.948 1229.69 869.512 1228.78 867.862 1226.96C866.21 1225.13 864.765 1224.38 863.528 1224.73L862.6 1225L862.3 1223.94L863.557 1223.58C865.029 1223.17 866.755 1224.02 868.734 1226.14C870.721 1228.26 872.498 1229.1 874.064 1228.65L874.307 1229.51C873.383 1229.77 872.678 1230.36 872.193 1231.28C871.706 1232.18 870.734 1235.13 869.277 1240.11L867.586 1240.59ZM901.024 1212.97L899.099 1228.26C898.801 1230.61 897.575 1232.09 895.421 1232.7C894.419 1232.99 893.418 1232.97 892.417 1232.67L892.117 1231.61C893.103 1231.92 894.092 1231.94 895.087 1231.66C896.762 1231.18 897.646 1230.17 897.738 1228.61L886.554 1217.07L887.905 1216.69L898.09 1227.25L899.709 1213.35L901.024 1212.97ZM910.614 1219.33L901.623 1212.8L903.091 1212.39L911.079 1218.19L914.836 1209.06L916.305 1208.65L912.082 1218.91L921.061 1225.44L919.593 1225.86L911.605 1220.05L907.848 1229.18L906.38 1229.6L910.614 1219.33Z" fill="#EAD0FF"/>
<path d="M583.796 218.704C583.796 218.704 392.756 384.653 452.814 503.093C512.872 621.533 763.707 502.707 741.106 394.847C732.853 355.462 708.911 331.357 685.335 327.205C546.084 302.685 495.025 598.862 593.827 700.027C693.212 801.789 969.891 754.174 947.62 613.687C939.625 563.256 908.243 514.176 882.31 500.415C713.116 410.634 546.316 820.935 687.469 950.331C798.148 1051.79 989.439 1041.57 1048.05 935.966C1080.89 876.81 1078.7 823.681 1030.2 776.542C927.588 676.812 751.035 916.742 805.226 1049.18C853.183 1166.38 1005.53 1157.81 1005.53 1157.81" stroke="url(#paint0_linear_1_5)" stroke-width="35"/>
<circle cx="1070.12" cy="1163.89" r="63.0283" transform="rotate(63.1117 1070.12 1163.89)" fill="#FF71C9" stroke="url(#paint1_linear_1_5)" stroke-width="35"/>
<path d="M1203.95 1070.16C1203.53 1114.32 1112.4 1136.54 1112.4 1136.54L1015.34 1116.55C1015.34 1116.55 968.181 1024.92 1006.06 1018.67C1035.44 1013.82 1062.98 1069.04 1063.31 1069.7C1062.76 1068.14 1204.46 1015.31 1203.95 1070.16Z" fill="url(#paint2_linear_1_5)"/>
<path d="M1112.4 1136.54C1112.4 1136.54 1203.53 1114.32 1203.95 1070.16C1204.46 1015.24 1062.38 1068.29 1063.31 1069.71M1112.4 1136.54C1096.42 1114.85 1064.24 1071.12 1063.31 1069.71M1112.4 1136.54L1015.34 1116.55C1015.34 1116.55 968.181 1024.92 1006.06 1018.67C1035.61 1013.79 1063.31 1069.71 1063.31 1069.71" stroke="url(#paint3_linear_1_5)" stroke-width="15"/>
<path d="M1157.53 1310.71C1173.84 1269.67 1097.86 1214.66 1097.86 1214.66L1000.44 1196.49C1000.44 1196.49 922.155 1263.5 954.863 1283.6C980.225 1299.2 1026.59 1258.48 1027.15 1257.99C1026.05 1259.22 1137.28 1361.69 1157.53 1310.71Z" fill="url(#paint4_linear_1_5)"/>
<path d="M1097.86 1214.66C1097.86 1214.66 1173.84 1269.67 1157.53 1310.71C1137.26 1361.75 1025.75 1258.95 1027.15 1257.99M1097.86 1214.66C1074.87 1228.7 1028.55 1257.02 1027.15 1257.99M1097.86 1214.66L1000.44 1196.49C1000.44 1196.49 922.155 1263.5 954.863 1283.6C980.378 1299.29 1027.15 1257.99 1027.15 1257.99" stroke="url(#paint5_linear_1_5)" stroke-width="15"/>
<defs>
<linearGradient id="paint0_linear_1_5" x1="1099.87" y1="1097.43" x2="442.826" y2="299.949" gradientUnits="userSpaceOnUse">
<stop stop-color="#FF70CA"/>
<stop offset="0.0001" stop-color="#FF70C8"/>
<stop offset="0.260417" stop-color="#FF73C9" stop-opacity="0.5059"/>
<stop offset="1" stop-color="#FF8ED5" stop-opacity="0"/>
</linearGradient>
<linearGradient id="paint1_linear_1_5" x1="1148.9" y1="1120.25" x2="984.331" y2="1134.64" gradientUnits="userSpaceOnUse">
<stop offset="0.0001" stop-color="#FF70C8"/>
<stop offset="0.9999" stop-color="#FF70CA"/>
</linearGradient>
<linearGradient id="paint2_linear_1_5" x1="1141.5" y1="1141.49" x2="1157.18" y2="1046.07" gradientUnits="userSpaceOnUse">
<stop stop-color="#FF70CA"/>
<stop offset="0.9998" stop-color="#FF70C8"/>
<stop offset="0.9999" stop-color="#FF73C9" stop-opacity="0.5059"/>
<stop offset="1" stop-color="#FF8ED5" stop-opacity="0"/>
</linearGradient>
<linearGradient id="paint3_linear_1_5" x1="1139.54" y1="1141" x2="1167.59" y2="1016.32" gradientUnits="userSpaceOnUse">
<stop offset="0.0001" stop-color="#FF70C8"/>
<stop offset="1" stop-color="#FF70CA"/>
</linearGradient>
<linearGradient id="paint4_linear_1_5" x1="1126.67" y1="1221.07" x2="1105.13" y2="1315.34" gradientUnits="userSpaceOnUse">
<stop offset="0.0001" stop-color="#FF70C8"/>
<stop offset="0.9999" stop-color="#FF70CA"/>
</linearGradient>
<linearGradient id="paint5_linear_1_5" x1="1124.67" y1="1220.79" x2="1101.18" y2="1323.08" gradientUnits="userSpaceOnUse">
<stop offset="0.0001" stop-color="#FF70C8"/>
<stop offset="1" stop-color="#FF70CA"/>
</linearGradient>
</defs>
</svg>
