<svg width="1371" height="1372" viewBox="0 0 1371 1372" fill="none" xmlns="http://www.w3.org/2000/svg">
<path d="M306.795 370.413C306.795 370.413 306.03 652.567 432.659 674.459C552.983 695.261 719.882 564.638 658.988 458.718C629.188 406.884 550.146 393.035 498.826 410.563C317.615 472.454 381.124 914.532 572.497 907.887C721.944 902.698 827.44 673.725 802.777 601.952C786.825 555.532 718.662 540.072 680.864 571.385C563.755 668.402 741.523 996.247 919.316 966.583C1026.6 948.683 1121.04 774.535 1121.04 774.535" stroke="url(#paint0_linear_1_94)" stroke-width="25"/>
<circle cx="310.259" cy="358.007" r="76.5825" transform="rotate(14.0756 310.259 358.007)" fill="#8BC8FF"/>
<path d="M176.193 190.437C228.894 185.711 266.16 291.747 266.16 291.747L253.796 409.837C253.796 409.837 150.131 476.891 138.192 432.464C128.935 398.015 191.521 358.649 192.27 358.179C190.481 359.019 110.738 196.307 176.193 190.437Z" fill="url(#paint1_linear_1_94)"/>
<path d="M266.16 291.747C266.16 291.747 228.894 185.711 176.193 190.437C110.65 196.315 190.696 359.456 192.277 358.175M266.16 291.747C242.191 313.355 193.858 356.893 192.277 358.175M266.16 291.747L253.796 409.837C253.796 409.837 150.131 476.891 138.192 432.464C128.879 397.808 192.277 358.175 192.277 358.175" stroke="url(#paint2_linear_1_94)" stroke-width="15"/>
<path d="M468.491 217.341C417.63 202.754 402.991 267.628 361.021 299.85L350.875 418.152C350.875 418.152 440.022 503.566 460.131 462.191C475.724 430.108 421.692 379.637 421.045 379.035C422.644 380.197 531.662 235.459 468.491 217.341Z" fill="url(#paint3_linear_1_94)"/>
<path d="M361.021 299.85C402.991 267.628 417.63 202.754 468.491 217.341C531.747 235.483 422.35 380.586 421.039 379.029M361.021 299.85C380.481 325.595 419.728 377.472 421.039 379.029M361.021 299.85L350.875 418.152C350.875 418.152 440.022 503.566 460.131 462.191C475.818 429.915 421.039 379.029 421.039 379.029" stroke="url(#paint4_linear_1_94)" stroke-width="15"/>
<path d="M198.648 491.099L202.946 474.18L210.163 476.013C213.381 476.831 214.657 478.553 213.99 481.179C213.501 483.104 211.984 484.184 209.439 484.419C211.809 485.466 212.712 487.102 212.147 489.326C211.319 492.583 209.143 493.764 205.617 492.869L198.648 491.099ZM205.757 491.771C208.487 492.464 210.172 491.549 210.813 489.025C211.38 486.793 209.956 485.243 206.54 484.375L205.594 484.135L205.807 483.295C209.841 483.942 212.14 483.157 212.703 480.94C213.203 478.969 212.239 477.674 209.81 477.057L203.918 475.56L200.161 490.35L205.757 491.771ZM234.083 500.1C232.491 495.161 231.439 492.245 230.928 491.351C230.418 490.449 229.698 489.88 228.767 489.643L228.986 488.78C230.564 489.18 232.313 488.294 234.234 486.12C236.162 483.948 237.868 483.051 239.351 483.427L240.617 483.749L240.346 484.814L239.412 484.576C238.166 484.26 236.741 485.04 235.14 486.917C233.54 488.786 232.129 489.729 230.907 489.746C231.473 489.999 232.01 490.61 232.52 491.579C233.031 492.54 234.12 495.525 235.787 500.532L234.083 500.1ZM229.472 480.918L225.174 497.837L223.932 497.521L228.23 480.602L229.472 480.918ZM213.319 494.825C217.174 491.22 219.555 489.117 220.463 488.516C221.374 487.908 222.138 487.628 222.755 487.675C221.69 487.077 220.9 485.575 220.386 483.169C219.874 480.755 218.995 479.39 217.749 479.074L216.814 478.836L217.084 477.771L218.35 478.093C219.833 478.47 220.9 480.071 221.55 482.898C222.209 485.727 223.327 487.342 224.904 487.743L224.685 488.606C223.754 488.37 222.85 488.526 221.971 489.076C221.095 489.617 218.779 491.678 215.023 495.258L213.319 494.825ZM256.092 487.68L246.767 499.946C245.331 501.832 243.529 502.499 241.359 501.948C240.35 501.691 239.489 501.179 238.778 500.41L239.048 499.346C239.744 500.11 240.593 500.62 241.594 500.874C243.282 501.303 244.556 500.866 245.416 499.565L241.516 483.977L242.877 484.323L246.399 498.568L254.767 487.343L256.092 487.68ZM261.208 497.984L256.696 487.833L258.175 488.209L262.179 497.236L270.006 491.214L271.485 491.59L262.687 498.36L267.187 508.508L265.708 508.133L261.704 499.105L253.877 505.128L252.398 504.752L261.208 497.984Z" fill="#EAD0FF"/>
<path d="M524.292 757.821L515.976 742.473L522.523 738.925C525.443 737.344 527.548 737.744 528.839 740.127C529.785 741.873 529.402 743.695 527.691 745.594C530.143 744.756 531.916 745.346 533.009 747.364C534.611 750.319 533.812 752.663 530.613 754.396L524.292 757.821ZM529.972 753.494C532.448 752.152 533.065 750.337 531.825 748.047C530.728 746.022 528.63 745.849 525.532 747.528L524.673 747.993L524.26 747.231C527.663 744.97 528.82 742.835 527.731 740.824C526.762 739.035 525.175 738.738 522.971 739.932L517.626 742.828L524.895 756.244L529.972 753.494ZM556.437 740.404C551.918 737.855 549.167 736.425 548.185 736.115C547.198 735.798 546.283 735.868 545.439 736.326L545.014 735.542C546.445 734.767 547.129 732.929 547.067 730.029C547.011 727.125 547.656 725.308 549.001 724.58L550.15 723.957L550.673 724.923L549.825 725.383C548.695 725.995 548.177 727.534 548.273 730C548.365 732.459 547.967 734.108 547.081 734.95C547.668 734.752 548.478 734.836 549.509 735.203C550.537 735.562 553.361 737.017 557.982 739.567L556.437 740.404ZM540.039 729.435L548.355 744.783L547.228 745.394L538.912 730.046L540.039 729.435ZM537.601 750.61C537.988 745.346 538.312 742.186 538.572 741.129C538.829 740.064 539.2 739.34 539.686 738.956C538.497 739.239 536.898 738.671 534.889 737.252C532.876 735.825 531.304 735.418 530.173 736.03L529.325 736.49L528.802 735.524L529.95 734.901C531.296 734.173 533.166 734.626 535.561 736.263C537.963 737.895 539.88 738.324 541.311 737.548L541.736 738.332C540.891 738.789 540.333 739.518 540.06 740.517C539.783 741.509 539.478 744.595 539.146 749.773L537.601 750.61ZM564.188 716.351L565.654 731.69C565.878 734.049 565.005 735.762 563.038 736.828C562.122 737.324 561.142 737.531 560.098 737.449L559.574 736.483C560.604 736.573 561.573 736.372 562.482 735.88C564.013 735.05 564.653 733.865 564.403 732.326L550.965 723.515L552.2 722.847L564.449 730.926L562.986 717.002L564.188 716.351ZM574.936 720.455L564.736 716.055L566.077 715.328L575.142 719.246L576.81 709.512L578.152 708.786L576.278 719.728L586.468 724.134L585.126 724.861L576.061 720.942L574.393 730.676L573.051 731.403L574.936 720.455Z" fill="#EAD0FF"/>
<defs>
<linearGradient id="paint0_linear_1_94" x1="273.181" y1="469.836" x2="1113.69" y2="842.636" gradientUnits="userSpaceOnUse">
<stop stop-color="#8AC7FE"/>
<stop offset="0.244792" stop-color="#8AC7FE"/>
<stop offset="1" stop-color="#8AC7FE" stop-opacity="0"/>
</linearGradient>
<linearGradient id="paint1_linear_1_94" x1="269.719" y1="268.012" x2="151.705" y2="260.915" gradientUnits="userSpaceOnUse">
<stop stop-color="#8AC7FE"/>
<stop offset="0.244792" stop-color="#8AC7FE"/>
</linearGradient>
<linearGradient id="paint2_linear_1_94" x1="269.719" y1="268.012" x2="151.705" y2="260.915" gradientUnits="userSpaceOnUse">
<stop stop-color="#8AC7FE"/>
<stop offset="1" stop-color="#8AC7FE"/>
</linearGradient>
<linearGradient id="paint3_linear_1_94" x1="362.006" y1="275.87" x2="479.239" y2="291.175" gradientUnits="userSpaceOnUse">
<stop stop-color="#8AC7FE"/>
<stop offset="0.244792" stop-color="#8AC7FE"/>
</linearGradient>
<linearGradient id="paint4_linear_1_94" x1="362.006" y1="275.87" x2="479.239" y2="291.175" gradientUnits="userSpaceOnUse">
<stop stop-color="#8AC7FE"/>
<stop offset="1" stop-color="#8AC7FE"/>
</linearGradient>
</defs>
</svg>
