<svg width="1260" height="996" viewBox="0 0 1260 996" fill="none" xmlns="http://www.w3.org/2000/svg">
<circle cx="625.56" cy="507.024" r="152.843" transform="rotate(-24.2935 625.56 507.024)" fill="#FF71C9" stroke="url(#paint0_linear_20_90)" stroke-width="35"/>
<path d="M440.318 215.258C533.594 220.364 571.818 415.076 571.818 415.076L520.274 618.267C520.274 618.267 322.15 709.138 312.556 628.489C305.116 565.955 424.44 513.045 425.875 512.411C422.534 513.415 324.469 208.918 440.318 215.258Z" fill="url(#paint1_linear_20_90)"/>
<path d="M571.818 415.076C571.818 415.076 533.594 220.364 440.318 215.258C324.312 208.909 422.801 514.243 425.888 512.405M571.818 415.076C524.462 446.753 428.976 510.567 425.888 512.405M571.818 415.076L520.274 618.267C520.274 618.267 322.15 709.138 312.556 628.489C305.071 565.577 425.888 512.405 425.888 512.405" stroke="url(#paint2_linear_20_90)" stroke-width="20"/>
<path d="M944.194 336.377C859.028 297.994 735.504 453.286 735.504 453.286L687.781 657.409C687.781 657.409 821.88 829.246 867.505 762.055C902.882 709.956 821.282 608.079 820.299 606.855C822.804 609.284 1049.97 384.049 944.194 336.377Z" fill="url(#paint3_linear_20_90)"/>
<path d="M735.504 453.286C735.504 453.286 859.028 297.994 944.194 336.377C1050.11 384.114 822.186 609.896 820.29 606.844M735.504 453.286C762.976 503.2 818.394 603.791 820.29 606.844M735.504 453.286L687.781 657.409C687.781 657.409 821.88 829.246 867.505 762.055C903.096 709.64 820.29 606.844 820.29 606.844" stroke="url(#paint4_linear_20_90)" stroke-width="20"/>
<path d="M15.7227 498.488C14.2415 498.83 12.6465 499.001 10.9375 499.001C4.89909 499.001 1.87988 495.896 1.87988 489.687C1.87988 483.933 4.89909 481.057 10.9375 481.057C12.6465 481.057 14.2415 481.228 15.7227 481.569V483.107C14.1276 482.766 12.5895 482.595 11.1084 482.595C6.26628 482.595 3.84521 484.959 3.84521 489.687C3.84521 494.871 6.26628 497.463 11.1084 497.463C12.5895 497.463 14.1276 497.292 15.7227 496.95V498.488ZM31.6333 481.057V482.595H25.3101V499.001H23.5156V482.595H17.1924V481.057H31.6333ZM32.0776 481.057H34.1455L40.8105 497.258L47.373 481.057H49.3555L41.5625 499.531C40.2409 502.789 38.2585 504.823 35.6152 505.632L35.0854 504.196C37.159 503.444 38.7427 501.804 39.8364 499.274L32.0776 481.057ZM56.1914 497.463H66.5991V482.595H58.9087C58.9087 489.647 58.0029 494.603 56.1914 497.463ZM49.7998 505.495V497.463H52.9443C55.7243 497.463 57.1143 492.507 57.1143 482.595V481.057H68.3936V497.463H71.5552V505.495H69.7607V499.001H51.5771V505.495H49.7998ZM82.8003 481.057C87.7108 481.057 90.166 483.774 90.166 489.208C90.166 489.596 90.1546 490 90.1318 490.422H76.5112C76.5112 495.116 78.995 497.463 83.9624 497.463C86.0018 497.463 87.8133 497.178 89.397 496.608V498.146C87.8133 498.716 86.0018 499.001 83.9624 499.001C77.7987 499.001 74.7168 495.942 74.7168 489.824C74.7168 483.979 77.4113 481.057 82.8003 481.057ZM76.5112 488.815H88.4399C88.3716 484.646 86.4917 482.561 82.8003 482.561C78.8127 482.561 76.7163 484.646 76.5112 488.815ZM94.6094 499.001V481.057H96.4038V489.089H107.256V481.057H109.05V499.001H107.256V490.627H96.4038V499.001H94.6094ZM126.072 481.057V482.595H119.749V499.001H117.954V482.595H111.631V481.057H126.072ZM130.959 481.057V483.193H128.652V481.057H130.959ZM130.959 496.865V499.001H128.652V496.865H130.959ZM2.73438 530.001V505.562H13.1592C17.8076 505.562 20.1318 507.459 20.1318 511.253C20.1318 514.033 18.4456 516.021 15.0732 517.218C18.6507 517.822 20.4395 519.73 20.4395 522.943C20.4395 527.648 17.8931 530.001 12.8003 530.001H2.73438ZM12.6123 528.463C16.5544 528.463 18.5254 526.64 18.5254 522.994C18.5254 519.77 16.0588 518.158 11.1255 518.158H9.7583V516.944C15.4549 516.432 18.3032 514.575 18.3032 511.373C18.3032 508.525 16.5487 507.101 13.0396 507.101H4.52881V528.463H12.6123ZM24.4385 524.925C24.4385 521.359 26.8083 519.576 31.5479 519.576C33.2227 519.576 35.0114 519.69 36.9141 519.918V517.713C36.9141 514.968 35.188 513.595 31.7358 513.595C29.8901 513.595 27.9989 513.88 26.062 514.449V512.911C27.9989 512.341 29.8901 512.057 31.7358 512.057C36.3843 512.057 38.7085 513.914 38.7085 517.628V530.001H37.6147L37.2046 528.224C34.9601 529.409 32.784 530.001 30.6763 530.001C26.5177 530.001 24.4385 528.309 24.4385 524.925ZM31.5479 521.114C28.0046 521.114 26.2329 522.368 26.2329 524.874C26.2329 527.267 27.714 528.463 30.6763 528.463C32.8638 528.463 34.943 527.882 36.9141 526.72V521.456C35.0114 521.228 33.2227 521.114 31.5479 521.114ZM57.1826 529.488C55.7015 529.83 54.1064 530.001 52.3975 530.001C46.359 530.001 43.3398 526.896 43.3398 520.687C43.3398 514.933 46.359 512.057 52.3975 512.057C54.1064 512.057 55.7015 512.228 57.1826 512.569V514.107C55.5876 513.766 54.0495 513.595 52.5684 513.595C47.7262 513.595 45.3052 515.959 45.3052 520.687C45.3052 525.871 47.7262 528.463 52.5684 528.463C54.0495 528.463 55.5876 528.292 57.1826 527.95V529.488ZM74.0332 530.001V514.415L63.0103 530.001H61.2158V512.057H62.8394V527.643L73.8623 512.057H75.6567V530.001H74.0332ZM78.2373 528.463C80.9375 528.463 82.2876 526.583 82.2876 522.823V512.057H94.5923V530.001H92.7979V513.595H84.082V522.823C84.082 527.608 82.1338 530.001 78.2373 530.001V528.463ZM101.531 512.057V528.412H108.503C111.329 528.412 112.742 527.107 112.742 524.498C112.742 522.254 111.306 521.131 108.435 521.131H103.855V519.593H108.418C112.52 519.593 114.57 521.279 114.57 524.652C114.57 528.218 112.588 530.001 108.623 530.001H99.7363V512.057H101.531ZM134.019 512.057V530.001H132.224V522.926C130.561 524.225 128.573 524.874 126.26 524.874C121.6 524.874 119.27 522.533 119.27 517.85V512.057H121.064V517.901C121.064 521.479 122.825 523.268 126.345 523.268C128.84 523.268 130.8 522.51 132.224 520.995V512.057H134.019ZM146.545 512.057C151.456 512.057 153.911 514.774 153.911 520.208C153.911 520.596 153.9 521 153.877 521.422H140.256C140.256 526.116 142.74 528.463 147.708 528.463C149.747 528.463 151.558 528.178 153.142 527.608V529.146C151.558 529.716 149.747 530.001 147.708 530.001C141.544 530.001 138.462 526.942 138.462 520.824C138.462 514.979 141.156 512.057 146.545 512.057ZM140.256 519.815H152.185C152.117 515.646 150.237 513.561 146.545 513.561C142.558 513.561 140.461 515.646 140.256 519.815ZM158.354 530.001V512.057H160.149V520.089H171.001V512.057H172.795V530.001H171.001V521.627H160.149V530.001H158.354ZM179.734 512.057V530.001H177.939V512.057H179.734ZM189.475 530.001L186.963 525.797C185.277 522.641 183.42 521.063 181.392 521.063V519.986C183.556 519.986 185.055 518.665 185.886 516.021C186.729 513.378 188.279 512.057 190.535 512.057H191.851V513.595H190.5C189.156 513.595 188.136 514.632 187.441 516.705C186.746 518.767 185.687 520.021 184.263 520.465C185.493 520.818 187.048 522.493 188.928 525.489L191.765 530.001H189.475ZM194.004 521.029C194.004 514.933 196.852 511.886 202.549 511.886C208.245 511.886 211.094 514.933 211.094 521.029C211.094 527.124 208.245 530.172 202.549 530.172C196.875 530.172 194.027 527.124 194.004 521.029ZM195.798 520.96C195.798 526.076 198.049 528.634 202.549 528.634C207.049 528.634 209.299 526.076 209.299 520.96C209.299 515.936 207.049 513.424 202.549 513.424C198.049 513.424 195.798 515.936 195.798 520.96ZM2.73438 561.001V536.562H13.1592C17.8076 536.562 20.1318 538.459 20.1318 542.253C20.1318 545.033 18.4456 547.021 15.0732 548.218C18.6507 548.822 20.4395 550.73 20.4395 553.943C20.4395 558.648 17.8931 561.001 12.8003 561.001H2.73438ZM12.6123 559.463C16.5544 559.463 18.5254 557.64 18.5254 553.994C18.5254 550.77 16.0588 549.158 11.1255 549.158H9.7583V547.944C15.4549 547.432 18.3032 545.575 18.3032 542.373C18.3032 539.525 16.5487 538.101 13.0396 538.101H4.52881V559.463H12.6123ZM32.6929 543.057C37.6034 543.057 40.0586 545.774 40.0586 551.208C40.0586 551.596 40.0472 552 40.0244 552.422H26.4038C26.4038 557.116 28.8875 559.463 33.855 559.463C35.8944 559.463 37.7059 559.178 39.2896 558.608V560.146C37.7059 560.716 35.8944 561.001 33.855 561.001C27.6912 561.001 24.6094 557.942 24.6094 551.824C24.6094 545.979 27.3039 543.057 32.6929 543.057ZM26.4038 550.815H38.3325C38.2642 546.646 36.3843 544.561 32.6929 544.561C28.7052 544.561 26.6089 546.646 26.4038 550.815ZM46.2964 558.369C48.4497 558.984 50.2897 559.292 51.8164 559.292C56.4535 559.292 58.772 556.711 58.772 551.55C58.772 546.959 56.4648 544.663 51.8506 544.663C50.2555 544.663 48.4041 544.8 46.2964 545.073V558.369ZM44.502 543.792C46.8831 543.302 49.3441 543.057 51.8848 543.057C57.6383 543.057 60.5151 545.899 60.5151 551.584C60.5151 557.862 57.6213 561.001 51.8335 561.001C50.3979 561.001 48.5522 560.716 46.2964 560.146V567.495H44.502V543.792ZM63.9502 552.029C63.9502 545.933 66.7985 542.886 72.4951 542.886C78.1917 542.886 81.04 545.933 81.04 552.029C81.04 558.124 78.1917 561.172 72.4951 561.172C66.8213 561.172 63.973 558.124 63.9502 552.029ZM65.7446 551.96C65.7446 557.076 67.9948 559.634 72.4951 559.634C76.9954 559.634 79.2456 557.076 79.2456 551.96C79.2456 546.936 76.9954 544.424 72.4951 544.424C67.9948 544.424 65.7446 546.936 65.7446 551.96ZM85.3125 561.001V543.057H87.1069V551.089H97.959V543.057H99.7534V561.001H97.959V552.627H87.1069V561.001H85.3125ZM117.715 561.001V545.415L106.692 561.001H104.897V543.057H106.521V558.643L117.544 543.057H119.338V561.001H117.715ZM126.277 543.057V561.001H124.482V543.057H126.277ZM136.018 561.001L133.506 556.797C131.82 553.641 129.963 552.063 127.935 552.063V550.986C130.099 550.986 131.597 549.665 132.429 547.021C133.272 544.378 134.822 543.057 137.078 543.057H138.394V544.595H137.043C135.699 544.595 134.679 545.632 133.984 547.705C133.289 549.767 132.23 551.021 130.806 551.465C132.036 551.818 133.591 553.493 135.471 556.489L138.308 561.001H136.018ZM140.547 555.925C140.547 552.359 142.917 550.576 147.656 550.576C149.331 550.576 151.12 550.69 153.022 550.918V548.713C153.022 545.968 151.296 544.595 147.844 544.595C145.999 544.595 144.107 544.88 142.17 545.449V543.911C144.107 543.341 145.999 543.057 147.844 543.057C152.493 543.057 154.817 544.914 154.817 548.628V561.001H153.723L153.313 559.224C151.069 560.409 148.892 561.001 146.785 561.001C142.626 561.001 140.547 559.309 140.547 555.925ZM147.656 552.114C144.113 552.114 142.341 553.368 142.341 555.874C142.341 558.267 143.822 559.463 146.785 559.463C148.972 559.463 151.051 558.882 153.022 557.72V552.456C151.12 552.228 149.331 552.114 147.656 552.114Z" fill="#EAD0FF"/>
<path d="M1102.36 481.056V499H1100.56V481.056H1102.36ZM1112.1 499L1109.59 494.796C1107.9 491.64 1106.04 490.062 1104.02 490.062V488.986C1106.18 488.986 1107.68 487.664 1108.51 485.021C1109.35 482.378 1110.9 481.056 1113.16 481.056H1114.47V482.594H1113.12C1111.78 482.594 1110.76 483.631 1110.07 485.704C1109.37 487.767 1108.31 489.02 1106.89 489.464C1108.12 489.817 1109.67 491.492 1111.55 494.489L1114.39 499H1112.1ZM1115.35 481.056H1117.41L1124.08 497.257L1130.64 481.056H1132.62L1124.83 499.53C1123.51 502.788 1121.53 504.822 1118.88 505.631L1118.35 504.196C1120.43 503.444 1122.01 501.803 1123.1 499.274L1115.35 481.056ZM1137.43 496.368C1139.58 496.984 1141.42 497.291 1142.95 497.291C1147.58 497.291 1149.9 494.711 1149.9 489.55C1149.9 484.958 1147.59 482.662 1142.98 482.662C1141.39 482.662 1139.53 482.799 1137.43 483.073V496.368ZM1135.63 481.791C1138.01 481.301 1140.47 481.056 1143.01 481.056C1148.77 481.056 1151.65 483.899 1151.65 489.584C1151.65 495.861 1148.75 499 1142.96 499C1141.53 499 1139.68 498.715 1137.43 498.146V505.494H1135.63V481.791ZM1155.08 493.925C1155.08 490.358 1157.45 488.575 1162.19 488.575C1163.86 488.575 1165.65 488.689 1167.56 488.917V486.713C1167.56 483.967 1165.83 482.594 1162.38 482.594C1160.53 482.594 1158.64 482.879 1156.7 483.448V481.91C1158.64 481.341 1160.53 481.056 1162.38 481.056C1167.03 481.056 1169.35 482.913 1169.35 486.627V499H1168.26L1167.85 497.223C1165.6 498.408 1163.43 499 1161.32 499C1157.16 499 1155.08 497.308 1155.08 493.925ZM1162.19 490.114C1158.65 490.114 1156.87 491.367 1156.87 493.873C1156.87 496.266 1158.36 497.462 1161.32 497.462C1163.51 497.462 1165.58 496.881 1167.56 495.719V490.455C1165.65 490.227 1163.86 490.114 1162.19 490.114ZM1186.54 481.056V482.594H1180.22V499H1178.42V482.594H1172.1V481.056H1186.54ZM1188.27 490.028C1188.27 483.933 1191.12 480.885 1196.81 480.885C1202.51 480.885 1205.36 483.933 1205.36 490.028C1205.36 496.123 1202.51 499.171 1196.81 499.171C1191.14 499.171 1188.29 496.123 1188.27 490.028ZM1190.06 489.96C1190.06 495.075 1192.31 497.633 1196.81 497.633C1201.31 497.633 1203.56 495.075 1203.56 489.96C1203.56 484.935 1201.31 482.423 1196.81 482.423C1192.31 482.423 1190.06 484.935 1190.06 489.96ZM1211.43 496.368C1213.58 496.984 1215.42 497.291 1216.95 497.291C1221.58 497.291 1223.9 494.711 1223.9 489.55C1223.9 484.958 1221.59 482.662 1216.98 482.662C1215.38 482.662 1213.53 482.799 1211.43 483.073V496.368ZM1209.63 481.791C1212.01 481.301 1214.47 481.056 1217.01 481.056C1222.77 481.056 1225.64 483.899 1225.64 489.584C1225.64 495.861 1222.75 499 1216.96 499C1215.53 499 1213.68 498.715 1211.43 498.146V505.494H1209.63V481.791ZM1232.24 481.056V483.192H1229.93V481.056H1232.24ZM1232.24 496.864V499H1229.93V496.864H1232.24ZM1114.41 530V507.151H1106.41C1103.13 507.151 1101.49 508.621 1101.49 511.56C1101.49 514.75 1103.99 516.716 1109.01 517.456V518.67L1100.89 530H1098.43L1106.68 518.618C1101.89 517.206 1099.49 514.807 1099.49 511.424C1099.49 507.516 1101.7 505.562 1106.12 505.562H1116.2V530H1114.41ZM1123.31 527.368C1125.46 527.984 1127.3 528.291 1128.83 528.291C1133.47 528.291 1135.79 525.711 1135.79 520.55C1135.79 515.958 1133.48 513.662 1128.86 513.662C1127.27 513.662 1125.42 513.799 1123.31 514.073V527.368ZM1121.52 512.791C1123.9 512.301 1126.36 512.056 1128.9 512.056C1134.65 512.056 1137.53 514.899 1137.53 520.584C1137.53 526.861 1134.63 530 1128.85 530C1127.41 530 1125.57 529.715 1123.31 529.146V536.494H1121.52V512.791ZM1140.96 521.028C1140.96 514.933 1143.81 511.885 1149.51 511.885C1155.21 511.885 1158.05 514.933 1158.05 521.028C1158.05 527.123 1155.21 530.171 1149.51 530.171C1143.83 530.171 1140.99 527.123 1140.96 521.028ZM1142.76 520.96C1142.76 526.075 1145.01 528.633 1149.51 528.633C1154.01 528.633 1156.26 526.075 1156.26 520.96C1156.26 515.935 1154.01 513.423 1149.51 513.423C1145.01 513.423 1142.76 515.935 1142.76 520.96ZM1175.49 529.488C1174 529.829 1172.41 530 1170.7 530C1164.66 530 1161.64 526.896 1161.64 520.686C1161.64 514.933 1164.66 512.056 1170.7 512.056C1172.41 512.056 1174 512.227 1175.49 512.569V514.107C1173.89 513.765 1172.35 513.594 1170.87 513.594C1166.03 513.594 1163.61 515.958 1163.61 520.686C1163.61 525.87 1166.03 528.462 1170.87 528.462C1172.35 528.462 1173.89 528.291 1175.49 527.949V529.488ZM1176.96 528.462C1179.66 528.462 1181.01 526.582 1181.01 522.823V512.056H1193.31V530H1191.52V513.594H1182.8V522.823C1182.8 527.608 1180.85 530 1176.96 530V528.462ZM1197.6 524.925C1197.6 521.358 1199.97 519.575 1204.71 519.575C1206.38 519.575 1208.17 519.689 1210.08 519.917V517.713C1210.08 514.967 1208.35 513.594 1204.9 513.594C1203.05 513.594 1201.16 513.879 1199.22 514.448V512.91C1201.16 512.341 1203.05 512.056 1204.9 512.056C1209.55 512.056 1211.87 513.913 1211.87 517.627V530H1210.78L1210.37 528.223C1208.12 529.408 1205.95 530 1203.84 530C1199.68 530 1197.6 528.308 1197.6 524.925ZM1204.71 521.114C1201.17 521.114 1199.39 522.367 1199.39 524.873C1199.39 527.266 1200.88 528.462 1203.84 528.462C1206.02 528.462 1208.1 527.881 1210.08 526.719V521.455C1208.17 521.227 1206.38 521.114 1204.71 521.114ZM1225.87 528.462C1228.33 528.462 1229.56 527.323 1229.56 525.044C1229.56 522.766 1228.12 521.626 1225.23 521.626H1222.5V520.242C1227.06 520.071 1229.34 518.767 1229.34 516.328C1229.34 514.505 1228.32 513.594 1226.29 513.594H1218.98V528.462H1225.87ZM1217.18 530V512.056H1226.41C1229.58 512.056 1231.16 513.497 1231.16 516.38C1231.16 518.351 1230.05 519.786 1227.81 520.686C1230.25 521.29 1231.47 522.726 1231.47 524.993C1231.47 528.331 1229.67 530 1226.05 530H1217.18ZM1119.53 560.146C1117.31 560.829 1115.03 561.171 1112.7 561.171C1104.15 561.171 1099.88 556.927 1099.88 548.439C1099.88 540.407 1104.15 536.391 1112.7 536.391C1115.03 536.391 1117.31 536.733 1119.53 537.416V538.954C1117.31 538.271 1115.15 537.929 1113.04 537.929C1105.46 537.929 1101.67 541.432 1101.67 548.439C1101.67 555.902 1105.46 559.633 1113.04 559.633C1115.15 559.633 1117.31 559.291 1119.53 558.608V560.146ZM1122.46 543.056H1124.52L1131.19 559.257L1137.75 543.056H1139.73L1131.94 561.53C1130.62 564.788 1128.64 566.822 1125.99 567.631L1125.46 566.196C1127.54 565.444 1129.12 563.803 1130.21 561.274L1122.46 543.056ZM1158.74 552.114C1158.74 558.152 1156.01 561.171 1150.57 561.171C1145.07 561.171 1142.31 558.152 1142.31 552.114V546.559C1142.31 539.894 1145.36 536.562 1151.44 536.562C1153.97 536.562 1156.21 535.941 1158.16 534.699V536.459C1156.41 537.553 1154.16 538.1 1151.39 538.1C1146.59 538.1 1144.19 540.863 1144.19 546.388C1145.57 544.167 1147.75 543.056 1150.74 543.056C1156.07 543.056 1158.74 545.938 1158.74 551.703V552.114ZM1150.57 559.633C1154.81 559.633 1156.93 557.127 1156.93 552.114C1156.93 547.169 1154.86 544.697 1150.74 544.697C1146.38 544.697 1144.19 547.169 1144.19 552.114C1144.19 557.127 1146.32 559.633 1150.57 559.633ZM1179.21 552.114C1179.21 558.152 1176.49 561.171 1171.04 561.171C1165.54 561.171 1162.79 558.152 1162.79 552.114V546.559C1162.79 539.894 1165.83 536.562 1171.91 536.562C1174.44 536.562 1176.68 535.941 1178.63 534.699V536.459C1176.89 537.553 1174.63 538.1 1171.86 538.1C1167.07 538.1 1164.67 540.863 1164.67 546.388C1166.05 544.167 1168.23 543.056 1171.21 543.056C1176.54 543.056 1179.21 545.938 1179.21 551.703V552.114ZM1171.04 559.633C1175.28 559.633 1177.4 557.127 1177.4 552.114C1177.4 547.169 1175.34 544.697 1171.21 544.697C1166.85 544.697 1164.67 547.169 1164.67 552.114C1164.67 557.127 1166.79 559.633 1171.04 559.633ZM1182.83 552.028C1182.83 545.933 1185.68 542.885 1191.38 542.885C1197.08 542.885 1199.92 545.933 1199.92 552.028C1199.92 558.123 1197.08 561.171 1191.38 561.171C1185.71 561.171 1182.86 558.123 1182.83 552.028ZM1184.63 551.96C1184.63 557.075 1186.88 559.633 1191.38 559.633C1195.88 559.633 1198.13 557.075 1198.13 551.96C1198.13 546.935 1195.88 544.423 1191.38 544.423C1186.88 544.423 1184.63 546.935 1184.63 551.96ZM1216.07 543.056V544.594H1209.75V561H1207.96V544.594H1201.63V543.056H1216.07ZM1231.47 561V545.414L1220.45 561H1218.65V543.056H1220.28V558.642L1231.3 543.056H1233.1V561H1231.47ZM1238.24 561V543.056H1240.03V551.088H1250.89V543.056H1252.68V561H1250.89V552.626H1240.03V561H1238.24Z" fill="#EAD0FF"/>
<path d="M560.56 521.98C560.56 526.787 559.183 530.17 556.43 532.13C553.723 534.043 548.66 535 541.24 535H533.4V534.3L536.69 533.95V487.19L533.4 486.7V486H558.88V494.82H558.18L556.85 487.19H539.91V509.31H541.31C547.703 509.31 552.51 510.313 555.73 512.32C558.95 514.327 560.56 517.547 560.56 521.98ZM539.84 533.95H541.24C546.98 533.95 551.087 533.063 553.56 531.29C556.08 529.517 557.34 526.367 557.34 521.84C557.34 514.187 551.997 510.36 541.31 510.36H539.91L539.84 533.95ZM563.148 535C563.148 528.98 566.578 523.543 573.438 518.69C573.951 518.363 574.884 517.733 576.238 516.8C577.638 515.82 578.571 515.167 579.038 514.84C579.504 514.513 580.251 513.907 581.278 513.02C582.351 512.133 583.074 511.433 583.448 510.92C583.868 510.36 584.404 509.59 585.058 508.61C585.758 507.583 586.224 506.603 586.458 505.67C586.691 504.69 586.924 503.547 587.158 502.24C587.391 500.933 587.508 499.51 587.508 497.97C587.508 494.61 586.458 491.927 584.358 489.92C582.304 487.867 579.901 486.84 577.148 486.84C575.281 486.84 573.624 487.097 572.178 487.61C570.731 488.123 569.564 488.753 568.678 489.5C567.791 490.2 566.974 491.227 566.228 492.58C565.481 493.887 564.898 495.077 564.478 496.15C564.104 497.223 563.661 498.623 563.148 500.35L562.728 500.28L562.868 494.47H563.288L563.638 497.2C564.104 493.84 565.598 490.947 568.118 488.52C570.638 486.093 573.811 484.88 577.638 484.88C581.091 484.88 584.124 486.21 586.738 488.87C589.351 491.483 590.658 494.54 590.658 498.04C590.658 499.487 590.494 500.91 590.168 502.31C589.841 503.71 589.468 504.923 589.048 505.95C588.674 506.93 588.044 507.98 587.158 509.1C586.318 510.22 585.641 511.083 585.128 511.69C584.614 512.297 583.751 513.09 582.538 514.07C581.371 515.003 580.601 515.61 580.228 515.89C579.854 516.17 579.014 516.73 577.708 517.57C576.448 518.41 575.794 518.853 575.748 518.9C568.934 523.52 565.528 528.093 565.528 532.62L586.668 532.55L587.718 528.63H588.348V535H563.148ZM626.326 488.52L604.766 502.17C607.426 500.583 610.576 499.79 614.216 499.79C618.463 499.79 622.033 501.563 624.926 505.11C627.819 508.657 629.243 512.903 629.196 517.85C629.149 523.73 627.259 528.327 623.526 531.64C619.839 534.953 615.546 536.61 610.646 536.61C606.306 536.61 602.713 535.397 599.866 532.97C597.019 530.497 594.989 527.673 593.776 524.5L593.846 527.58L593.426 527.65L592.796 521.56L593.216 521.49C593.776 522.797 594.476 524.127 595.316 525.48C596.156 526.787 597.253 528.21 598.606 529.75C599.959 531.29 601.616 532.55 603.576 533.53C605.583 534.51 607.683 535 609.876 535C611.929 535 613.843 534.743 615.616 534.23C617.389 533.67 619.069 532.783 620.656 531.57C622.289 530.357 623.573 528.583 624.506 526.25C625.486 523.917 625.976 521.117 625.976 517.85C625.976 515.19 625.603 512.647 624.856 510.22C624.109 507.747 622.803 505.6 620.936 503.78C619.069 501.913 616.783 500.98 614.076 500.98C611.883 500.98 609.923 501.237 608.196 501.75C606.469 502.217 605.116 502.73 604.136 503.29C603.203 503.803 601.686 504.76 599.586 506.16L598.886 505.46L624.646 488.52H598.886L597.836 494.75H597.136V486H626.326V488.52ZM655.011 484.39L660.821 533.81H664.111V543.61H663.411L661.451 535H634.011L632.051 543.61H631.351V533.81H635.271L655.011 484.39ZM652.981 492.44L636.531 533.81H657.531L652.981 492.44ZM673.214 483.48L673.634 483.83L671.884 487.19C671.931 487.19 672.537 487.073 673.704 486.84C674.871 486.607 675.967 486.49 676.994 486.49C680.961 486.49 684.274 487.493 686.934 489.5C689.641 491.507 690.994 494.493 690.994 498.46C690.994 500.373 690.481 502.123 689.454 503.71C688.474 505.25 687.214 506.487 685.674 507.42C684.134 508.353 682.547 509.077 680.914 509.59C679.327 510.057 677.787 510.313 676.294 510.36L676.364 509.87C680.144 510.01 683.527 511.223 686.514 513.51C689.501 515.797 691.017 518.993 691.064 523.1C691.157 526.6 689.711 529.47 686.724 531.71C683.784 533.95 680.377 535.07 676.504 535.07C675.664 535.07 674.964 535.047 674.404 535C673.844 534.907 673.097 534.72 672.164 534.44C671.277 534.16 670.717 533.997 670.484 533.95L672.654 537.03L672.094 537.45L666.214 531.92L666.634 531.5C667.614 532.293 669.154 532.9 671.254 533.32C673.401 533.693 675.174 533.88 676.574 533.88C678.954 533.88 681.427 532.877 683.994 530.87C686.607 528.817 687.914 526.227 687.914 523.1C687.914 520.953 687.494 519.063 686.654 517.43C685.861 515.797 684.787 514.537 683.434 513.65C682.081 512.717 680.727 512.04 679.374 511.62C678.067 511.153 676.691 510.85 675.244 510.71L675.314 509.45C679.421 508.937 682.524 507.887 684.624 506.3C686.771 504.667 687.821 502.053 687.774 498.46C687.681 495.24 686.631 492.58 684.624 490.48C682.617 488.38 680.051 487.33 676.924 487.33C673.891 487.33 670.927 488.357 668.034 490.41L667.754 490.06L673.214 483.48ZM691.894 493.7C692.408 493.233 693.108 492.65 693.994 491.95C694.928 491.203 695.651 490.62 696.164 490.2C696.678 489.78 697.261 489.197 697.914 488.45C698.614 487.703 699.221 486.887 699.734 486H700.294V487.05V533.95L703.584 534.3V535H693.784V534.3L697.074 533.95V490.97C696.094 491.81 694.438 492.883 692.104 494.19L691.894 493.7ZM729.098 484.74C736.564 484.74 742.374 487.12 746.528 491.88C750.728 496.593 752.828 502.613 752.828 509.94C752.828 517.64 750.704 523.917 746.458 528.77C742.211 533.623 736.634 536.05 729.728 536.05C722.308 536.05 716.498 533.67 712.298 528.91C708.144 524.15 706.068 518.223 706.068 511.13C706.068 506.743 707.048 502.543 709.008 498.53C711.014 494.517 713.791 491.227 717.338 488.66C720.931 486.047 724.851 484.74 729.098 484.74ZM709.148 509.31C709.148 511.877 709.404 514.35 709.918 516.73C710.431 519.11 711.248 521.42 712.368 523.66C713.488 525.853 714.864 527.767 716.498 529.4C718.178 530.987 720.254 532.27 722.728 533.25C725.201 534.23 727.931 534.72 730.918 534.72C737.124 534.72 741.744 532.527 744.778 528.14C747.811 523.707 749.328 517.92 749.328 510.78C749.328 508.26 749.118 505.88 748.698 503.64C748.324 501.4 747.624 499.183 746.598 496.99C745.571 494.75 744.264 492.86 742.678 491.32C741.091 489.733 739.014 488.45 736.448 487.47C733.881 486.49 730.941 486 727.628 486C721.981 486 717.478 488.357 714.118 493.07C710.804 497.737 709.148 503.15 709.148 509.31Z" fill="#100717"/>
<defs>
<linearGradient id="paint0_linear_20_90" x1="792.196" y1="414.716" x2="444.079" y2="445.153" gradientUnits="userSpaceOnUse">
<stop offset="0.0001" stop-color="#FF70C8"/>
<stop offset="0.9999" stop-color="#FF70CA"/>
</linearGradient>
<linearGradient id="paint1_linear_20_90" x1="585.066" y1="354.052" x2="384.932" y2="311.77" gradientUnits="userSpaceOnUse">
<stop stop-color="#FF70CA"/>
<stop offset="0.9998" stop-color="#FF70C8"/>
<stop offset="0.9999" stop-color="#FF73C9" stop-opacity="0.5059"/>
<stop offset="1" stop-color="#FF8ED5" stop-opacity="0"/>
</linearGradient>
<linearGradient id="paint2_linear_20_90" x1="583.838" y1="358.142" x2="323.072" y2="286.943" gradientUnits="userSpaceOnUse">
<stop offset="0.0001" stop-color="#FF70C8"/>
<stop offset="1" stop-color="#FF70CA"/>
</linearGradient>
<linearGradient id="paint3_linear_20_90" x1="751.818" y1="393.01" x2="948.965" y2="447.55" gradientUnits="userSpaceOnUse">
<stop offset="0.0001" stop-color="#FF70C8"/>
<stop offset="0.9999" stop-color="#FF70CA"/>
</linearGradient>
<linearGradient id="paint4_linear_20_90" x1="751.027" y1="397.206" x2="964.944" y2="456.644" gradientUnits="userSpaceOnUse">
<stop offset="0.0001" stop-color="#FF70C8"/>
<stop offset="1" stop-color="#FF70CA"/>
</linearGradient>
</defs>
</svg>
