<svg width="969" height="509" viewBox="0 0 969 509" fill="none" xmlns="http://www.w3.org/2000/svg">
<path d="M395.702 195.488C509.666 3.4435 151.259 -45.8377 87.9468 42.0557C19.9554 136.444 199.707 347.948 151.259 322.968C4.44499 247.268 -28.1308 392.104 21.9444 382.451C80.9298 371.081 1.83034 592.037 151.259 472.493C300.688 352.95 315.195 483.887 514 493.5C615.948 498.43 669.942 414.552 783 454C896.058 493.448 1023.73 302.838 943.25 263.525C803.961 195.488 620.556 389.331 682.729 243.255C761.007 59.3398 452.481 92.3845 465.137 195.488C477.793 298.591 341.605 286.648 395.702 195.488Z" fill="#EED7FF"/>
</svg>
